<?xml version="1.0" encoding="UTF-8"?>
<svg width="65px" height="65px" viewBox="0 0 65 65" version="1.1" xmlns="http://www.w3.org/2000/svg" xmlns:xlink="http://www.w3.org/1999/xlink">
    <!-- Generator: Sketch 53.2 (72643) - https://sketchapp.com -->
    <title>mission</title>
    <desc>Created with Sketch.</desc>
    <g id="Page-4" stroke="none" stroke-width="1" fill="none" fill-rule="evenodd">
        <g id="SweetyHome-mockup-04-About-1.1" transform="translate(-388.000000, -1614.000000)" fill-rule="nonzero">
            <g id="mission" transform="translate(388.000000, 1614.000000)">
                <path d="M50.0064977,65 L1.35152697,65 C0.875789474,65 0.432488629,64.748125 0.189213775,64.3364583 C-0.0540610786,63.9247917 -0.0621702404,63.415625 0.16488629,62.9958333 L24.4923717,18.3083333 C24.9654061,17.4389583 26.3926186,17.4389583 26.865653,18.3083333 L51.1931384,62.9958333 C51.4201949,63.415625 51.4120858,63.9247917 51.1688109,64.3364583 C50.9255361,64.748125 50.4822352,65 50.0064977,65 Z M3.62749838,62.2916667 L47.7278233,62.2916667 L25.6790123,21.7858333 L3.62749838,62.2916667 Z" id="Shape" fill="#05254D"></path>
                <path d="M63.5217674,65 L50.0064977,65 C49.2604548,65 48.6549708,64.3933333 48.6549708,63.6458333 C48.6549708,62.8983333 49.2604548,62.2916667 50.0064977,62.2916667 L61.2349838,62.2916667 L48.7333593,39.5145833 L43.5813385,50.19625 C43.2569721,50.8679167 42.454165,51.1522917 41.7756985,50.8245833 C41.1026381,50.4995833 40.8215205,49.6897917 41.14859,49.0154167 L47.4412995,35.9720833 C47.66295,35.5170833 48.117063,35.221875 48.6225341,35.2083333 C49.1307083,35.2327083 49.5983366,35.465625 49.8416114,35.9097917 L64.7084081,62.993125 C64.9381676,63.4129167 64.9327615,63.9220833 64.6867836,64.33375 C64.4408057,64.748125 64.0002079,65 63.5217674,65 L63.5217674,65 Z" id="Path" fill="#05254D"></path>
                <path d="M25.6790123,20.3125 C24.9329695,20.3125 24.3274854,19.7058333 24.3274854,18.9583333 L24.3274854,1.35416667 C24.3274854,0.606666667 24.9329695,0 25.6790123,0 L41.8973359,0 C42.4433528,0 42.9380117,0.330416667 43.1461468,0.836875 C43.3569851,1.34333333 43.2407537,1.925625 42.854217,2.31291667 L38.4022872,6.77083333 L42.851514,11.22875 C43.2380507,11.6160417 43.354282,12.1983333 43.1434438,12.7047917 C42.9380117,13.21125 42.4433528,13.5416667 41.8973359,13.5416667 L27.0305393,13.5416667 L27.0305393,18.9583333 C27.0305393,19.7058333 26.4250552,20.3125 25.6790123,20.3125 L25.6790123,20.3125 Z M27.0305393,10.8333333 L38.6347498,10.8333333 L35.53705,7.72958333 C35.0099545,7.20145833 35.0099545,6.34291667 35.53705,5.81479167 L38.6347498,2.70833333 L27.0305393,2.70833333 L27.0305393,10.8333333 Z" id="Shape" fill="#ED1B23"></path>
                <path d="M29.7335932,40.625 C29.7011566,40.625 29.671423,40.625 29.6362833,40.6222917 C29.2443405,40.5952083 28.8875374,40.3975 28.6523717,40.0833333 L25.6790123,36.1129167 L22.705653,40.0833333 C22.4704873,40.3975 22.1109812,40.5925 21.7217414,40.6222917 C21.3135802,40.6547917 20.9459649,40.5085417 20.6702534,40.2295833 L16.1291228,35.6795833 C15.6020273,35.1514583 15.6020273,34.2929167 16.1291228,33.7647917 C16.6562183,33.2366667 17.5130864,33.2366667 18.0401819,33.7647917 L21.4784665,37.2097917 L24.5977908,33.0416667 C25.1059649,32.3591667 26.2493567,32.3591667 26.7602339,33.0416667 L29.8795582,37.2097917 L33.3178428,33.7647917 C33.8449383,33.2366667 34.7018064,33.2366667 35.2289019,33.7647917 C35.7559974,34.2929167 35.7559974,35.1514583 35.2289019,35.6795833 L30.6877713,40.2295833 C30.4336842,40.4841667 30.0903964,40.625 29.7335932,40.625 L29.7335932,40.625 Z" id="Path" fill="#05254D"></path>
            </g>
        </g>
    </g>
</svg>