<?xml version="1.0" encoding="UTF-8"?>
<svg width="65px" height="55px" viewBox="0 0 65 55" version="1.1" xmlns="http://www.w3.org/2000/svg" xmlns:xlink="http://www.w3.org/1999/xlink">
    <!-- Generator: Sketch 53.2 (72643) - https://sketchapp.com -->
    <title>charity</title>
    <desc>Created with Sketch.</desc>
    <g id="Page-4" stroke="none" stroke-width="1" fill="none" fill-rule="evenodd">
        <g id="SweetyHome-mockup-04-About-1.1" transform="translate(-988.000000, -1619.000000)" fill-rule="nonzero">
            <g id="charity" transform="translate(988.000000, 1619.000000)">
                <path d="M46.5275,2.57303672 C43.2375,-0.509449153 37.6,-1.21295198 32.5,3.85823446 C27.4075,-1.20798023 21.7625,-0.509449153 18.4725,2.57055085 C14.64,6.15766949 14.5725,12.1585734 18.2675,15.8326977 L32.5,29.987274 L46.7325,15.8351836 C50.4275,12.1610593 50.36,6.16015537 46.5275,2.57303672 Z M44.965,14.0751836 L32.5,26.4722458 L20.035,14.0776695 C17.33,11.3854661 17.3825,7.00783898 20.1875,4.38275424 C21.3825,3.25913842 22.9825,2.64264124 24.6925,2.64264124 C28.2725,2.64264124 29.8825,4.77055085 32.5,7.37326271 C35.0475,4.84015537 36.6875,2.64264124 40.3075,2.64264124 C42.0175,2.64264124 43.6175,3.25913842 44.815,4.38026836 C47.6125,7.00038136 47.6775,11.3780085 44.965,14.0751836 Z" id="Shape" fill="#ED1B23"></path>
                <path d="M60.7275,2.64264124 C58.525,2.64264124 56.6975,4.28331921 56.4775,6.46094633 L54.895,22.0001554 C54.1325,22.1617373 53.4325,22.5296469 52.89,23.0690819 L40.2625,34.7576695 C38.525,36.3312288 37.5175,38.5759746 37.5,40.9226412 L37.5,54.8460311 L52.5,54.8460311 L52.5,48.2932627 C52.5,47.2815113 52.9275,46.2971045 53.7025,45.5662571 L63.19,36.0453531 C64.3575,34.8720198 65,33.3183475 65,31.6702119 L65,6.89100282 C65,4.54930791 63.0825,2.64264124 60.7275,2.64264124 Z M62.5,31.6702119 C62.5,32.6595904 62.115,33.5917938 61.4125,34.2977825 L51.955,43.7888559 C50.7125,44.9572175 50,46.5978955 50,48.2932627 L50,52.3601554 L40,52.3601554 L40,40.9375565 C40.0125,39.2894209 40.72,37.7108898 41.9575,36.5922458 L54.625,24.8613983 C54.965,24.5233192 55.43,24.3567655 55.9225,24.4064831 C56.195,24.4313418 56.5875,24.528291 56.9225,24.8613983 C57.23,25.167161 57.4,25.5748446 57.4,26.0049011 C57.4,26.4349576 57.2275,26.8426412 56.965,27.1061441 L47.2125,35.9011723 L48.8925,37.7407203 L58.69,28.9034322 C59.47,28.127839 59.9,27.0986864 59.9,26.0024153 C59.9,24.9061441 59.4725,23.8769915 58.6925,23.1038842 C58.3125,22.7210593 57.87,22.427726 57.385,22.2263701 L58.9625,6.71450565 C59.055,5.80964689 59.815,5.12851695 60.7275,5.12851695 C61.705,5.12851695 62.5,5.91902542 62.5,6.89100282 L62.5,31.6702119 Z" id="Shape" fill="#05254D"></path>
                <path d="M24.7375,34.7576695 L12.11,23.0690819 C11.5675,22.5296469 10.8675,22.1592514 10.105,22.0001554 L8.5225,6.46094633 C8.3025,4.28331921 6.475,2.64264124 4.2725,2.64264124 C1.9175,2.64264124 0,4.54930791 0,6.89100282 L0,31.6702119 C0,33.3183475 0.6425,34.8720198 1.81,36.0428672 L11.2975,45.5637712 C12.0725,46.2946186 12.5,47.2815113 12.5,48.2932627 L12.5,54.8460311 L27.5,54.8460311 L27.5,40.9226412 C27.485,38.5759746 26.475,36.3337147 24.7375,34.7576695 Z M25,52.3601554 L15,52.3601554 L15,48.2932627 C15,46.6003814 14.2875,44.9572175 13.045,43.7888559 L3.5875,34.2977825 C2.885,33.5917938 2.5,32.6595904 2.5,31.6702119 L2.5,6.89100282 C2.5,5.91902542 3.295,5.12851695 4.2725,5.12851695 C5.185,5.12851695 5.945,5.80964689 6.0375,6.7095339 L7.615,22.2213983 C7.13,22.4252401 6.6875,22.7185734 6.3075,23.0989124 C5.53,23.8720198 5.1,24.9011723 5.1,25.9974435 C5.1,27.0937147 5.53,28.1228672 6.31,28.8984605 L16.1075,37.7357486 L17.7875,35.8962006 L8.035,27.1011723 C7.77,26.8376695 7.6,26.4324718 7.6,25.9999294 C7.6,25.567387 7.77,25.1621893 8.0775,24.8564266 C8.41,24.5233192 8.805,24.4263701 9.0775,24.4015113 C9.5725,24.3542797 10.035,24.5183475 10.375,24.8564266 L23.0425,36.587274 C24.28,37.7059181 24.9875,39.2844492 25,40.9325847 L25,52.3601554 L25,52.3601554 Z" id="Shape" fill="#05254D"></path>
            </g>
        </g>
    </g>
</svg>